#define circle_cursor3_width 48
#define circle_cursor3_height 48
#define circle_cursor3_x_hot 24
#define circle_cursor3_y_hot 24
static unsigned char circle_cursor3_bits[] = {
   0x00, 0x00, 0x00, 0x00, 0x00, 0x00, 0x00, 0x00, 0xf8, 0x00, 0x00, 0x00,
   0x00, 0x80, 0xff, 0x87, 0x00, 0x00, 0x00, 0xe0, 0xe5, 0x1f, 0x00, 0x00,
   0x00, 0x00, 0x00, 0x7f, 0x00, 0x00, 0x00, 0x00, 0x00, 0xfe, 0x01, 0x00,
   0x00, 0x80, 0x37, 0xf8, 0x17, 0x00, 0x00, 0xfc, 0x7f, 0xe0, 0x7f, 0x00,
   0x00, 0xff, 0xff, 0x07, 0xff, 0x00, 0x80, 0x3f, 0xfe, 0x1f, 0xf0, 0x03,
   0xc0, 0x01, 0xc0, 0xff, 0xe3, 0x03, 0xe0, 0x00, 0x00, 0xfc, 0x0f, 0x07,
   0x70, 0x0f, 0x00, 0xf8, 0x1f, 0x0c, 0x38, 0x8f, 0x3f, 0x20, 0x3f, 0x08,
   0x98, 0x87, 0xff, 0x03, 0x04, 0x00, 0xcc, 0xe3, 0x13, 0x00, 0x00, 0x1c,
   0xce, 0xe0, 0x01, 0x40, 0xc1, 0x3f, 0x4e, 0xf8, 0x00, 0xc0, 0xff, 0x3f,
   0x6e, 0x1e, 0x00, 0x80, 0xff, 0x3f, 0x66, 0x0e, 0x00, 0x00, 0xf8, 0x3f,
   0x77, 0x0e, 0x00, 0x00, 0x00, 0x78, 0x73, 0x0e, 0x00, 0x00, 0x00, 0x40,
   0x73, 0x0e, 0x40, 0x02, 0xf0, 0x03, 0x79, 0x46, 0x80, 0x00, 0xfe, 0x3b,
   0x31, 0x47, 0x00, 0x01, 0xfe, 0x7f, 0x98, 0x47, 0x40, 0x02, 0x00, 0x7f,
   0x98, 0x67, 0x00, 0x00, 0x00, 0x7e, 0x9c, 0x73, 0x00, 0x00, 0xf8, 0x79,
   0x8c, 0x73, 0x00, 0x00, 0xff, 0x43, 0x8c, 0x79, 0x00, 0x80, 0xfb, 0x0f,
   0xcc, 0x70, 0x00, 0x00, 0xf0, 0x1f, 0xcc, 0x30, 0x04, 0x20, 0xf8, 0x3f,
   0xcc, 0x39, 0x0c, 0xf0, 0x60, 0x3e, 0xdc, 0x31, 0x0e, 0xfe, 0x00, 0x1c,
   0xdc, 0x39, 0x0e, 0xff, 0xbb, 0x13, 0xd8, 0x19, 0x0e, 0xef, 0x7f, 0x07,
   0x18, 0x18, 0x07, 0x07, 0xf8, 0x0f, 0x10, 0x18, 0x0f, 0xc3, 0xc3, 0x07,
   0x60, 0x30, 0x0e, 0xe3, 0x8f, 0x03, 0xe0, 0x30, 0x0e, 0xe7, 0x3f, 0x03,
   0xc0, 0x38, 0x8c, 0xe7, 0x78, 0x00, 0x80, 0x78, 0x0c, 0xc7, 0xf2, 0x00,
   0x00, 0xf8, 0x19, 0xc3, 0x64, 0x00, 0x00, 0xf0, 0x1f, 0xe7, 0x0e, 0x00,
   0x00, 0xf0, 0x18, 0xce, 0x0c, 0x00, 0x00, 0xe0, 0x18, 0xde, 0x01, 0x00,
   0x00, 0x80, 0x18, 0x9e, 0x00, 0x00, 0x00, 0x00, 0x30, 0x0e, 0x00, 0x00 };
