/* XPM */
static char * POS_cursor_xpm[] = {
"48 48 30 1",
" 	c #FFFFFF",
".	c #FCFCFC",
"+	c #DEDEDE",
"@	c #ABABAB",
"#	c #747474",
"$	c #414141",
"%	c #191919",
"&	c #060606",
"*	c #FEFEFE",
"=	c #CCCCCC",
"-	c #646464",
";	c #000000",
">	c #C3C3C3",
",	c #F5F5F5",
"'	c #3C3C3C",
")	c #7C7C7C",
"!	c #AFAFAF",
"~	c #D5D5D5",
"{	c #EFEFEF",
"]	c #232323",
"^	c #898989",
"/	c #E2E2E2",
"(	c #161616",
"_	c #959595",
":	c #626262",
"<	c #CACACA",
"[	c #5F5F5F",
"}	c #141414",
"|	c #FBFBFB",
"1	c #616161",
"                 .+@#$%&&%$#@+.                 ",
"              *=-;;;;;;;;;;;;;;-=*              ",
"            .@&;;;;;;;;;;;;;;;;;;&@.            ",
"           >&;;;;;;;;;;;;;;;;;;;;;;&>           ",
"         ,-;;;;;;;')!~{..{~!)';;;;;;;-,         ",
"        +&;;;;;]^/            /^];;;;;&+        ",
"       =;;;;;(_                  _(;;;;;=       ",
"      =;;;;;:{                    {:;;;;;=      ",
"     +;;;;;_                        _;;;;;+     ",
"    ,&;;;;!                          !;;;;&,    ",
"    -;;;;!                            !;;;;-    ",
"   >;;;;_                              _;;;;>   ",
"  .&;;;:                                :;;;&.  ",
"  @;;;({                                {(;;;@  ",
" *&;;;_                                  _;;;&* ",
" =;;;]                                    ];;;= ",
" -;;;^                                    ^;;;- ",
".;;;;/                                    /;;;;.",
"+;;;'                <[}}[<                ';;;+",
"@;;;)              |1;;;;;;1|              );;;@",
"#;;;!              1;;;;;;;;1              !;;;#",
"$;;;~             <;;;;;;;;;;<             ~;;;$",
"%;;;{             [;;;;;;;;;;[             {;;;%",
"&;;;.             };;;;;;;;;;}             .;;;&",
"&;;;.             };;;;;;;;;;}             .;;;&",
"%;;;{             [;;;;;;;;;;[             {;;;%",
"$;;;~             <;;;;;;;;;;<             ~;;;$",
"#;;;!              1;;;;;;;;1              !;;;#",
"@;;;)              |1;;;;;;1|              );;;@",
"+;;;'                <[}}[<                ';;;+",
".;;;;/                                    /;;;;.",
" -;;;^                                    ^;;;- ",
" =;;;]                                    ];;;= ",
" *&;;;_                                  _;;;&* ",
"  @;;;({                                {(;;;@  ",
"  .&;;;:                                :;;;&.  ",
"   >;;;;_                              _;;;;>   ",
"    -;;;;!                            !;;;;-    ",
"    ,&;;;;!                          !;;;;&,    ",
"     +;;;;;_                        _;;;;;+     ",
"      =;;;;;:{                    {:;;;;;=      ",
"       =;;;;;(_                  _(;;;;;=       ",
"        +&;;;;;]^/            /^];;;;;&+        ",
"         ,-;;;;;;;')!~{..{~!)';;;;;;;-,         ",
"           >&;;;;;;;;;;;;;;;;;;;;;;&>           ",
"            .@&;;;;;;;;;;;;;;;;;;&@.            ",
"              *=-;;;;;;;;;;;;;;-=*              ",
"                 .+@#$%&&%$#@+.                 "};
