#define POS_cursor_width 48
#define POS_cursor_height 48
static unsigned char POS_cursor_bits[] = {
   0x00, 0x00, 0xf0, 0x17, 0x00, 0x00, 0x00, 0x00, 0xff, 0xff, 0x00, 0x00,
   0x00, 0xc0, 0xff, 0xff, 0x03, 0x00, 0x00, 0xf0, 0xff, 0xff, 0x0f, 0x00,
   0x00, 0xfc, 0x07, 0xf0, 0x3f, 0x00, 0x00, 0xfe, 0x01, 0x00, 0x7f, 0x00,
   0x00, 0x3f, 0x00, 0x00, 0xfc, 0x00, 0x80, 0x1f, 0x00, 0x00, 0xf8, 0x01,
   0xc0, 0x07, 0x00, 0x00, 0xe0, 0x03, 0xe0, 0x07, 0x00, 0x00, 0xc0, 0x07,
   0xf0, 0x01, 0x00, 0x00, 0xc0, 0x0f, 0xf0, 0x01, 0x00, 0x00, 0x00, 0x0f,
   0xf8, 0x00, 0x00, 0x00, 0x00, 0x1f, 0x78, 0x00, 0x00, 0x00, 0x00, 0x1e,
   0x3c, 0x00, 0x00, 0x00, 0x00, 0x3c, 0x3c, 0x00, 0x00, 0x00, 0x00, 0x3c,
   0x3e, 0x00, 0x00, 0x00, 0x00, 0x78, 0x1e, 0x00, 0x00, 0x00, 0x00, 0x78,
   0x1e, 0x00, 0xc0, 0x03, 0x00, 0x78, 0x0e, 0x00, 0xf0, 0x0f, 0x00, 0x78,
   0x0f, 0x00, 0xf8, 0x1f, 0x00, 0xf0, 0x0f, 0x00, 0xf8, 0x1f, 0x00, 0xf0,
   0x0f, 0x00, 0xfc, 0x3f, 0x00, 0xf0, 0x0f, 0x00, 0xfc, 0x3f, 0x00, 0xf0,
   0x0f, 0x00, 0xfc, 0x3f, 0x00, 0xf0, 0x0f, 0x00, 0xfc, 0x3f, 0x00, 0xf0,
   0x0f, 0x00, 0xf8, 0x1f, 0x00, 0xf0, 0x0e, 0x00, 0xf8, 0x1f, 0x00, 0xf0,
   0x1e, 0x00, 0xf0, 0x0f, 0x00, 0x78, 0x1e, 0x00, 0xc0, 0x03, 0x00, 0x78,
   0x1e, 0x00, 0x00, 0x00, 0x00, 0x78, 0x1e, 0x00, 0x00, 0x00, 0x00, 0x78,
   0x3c, 0x00, 0x00, 0x00, 0x00, 0x3c, 0x3c, 0x00, 0x00, 0x00, 0x00, 0x3c,
   0x78, 0x00, 0x00, 0x00, 0x00, 0x1e, 0xf8, 0x00, 0x00, 0x00, 0x00, 0x1f,
   0xf0, 0x00, 0x00, 0x00, 0x80, 0x0f, 0xf0, 0x03, 0x00, 0x00, 0x80, 0x0f,
   0xe0, 0x03, 0x00, 0x00, 0xc0, 0x07, 0xc0, 0x07, 0x00, 0x00, 0xe0, 0x03,
   0x80, 0x1f, 0x00, 0x00, 0xf8, 0x01, 0x00, 0x3f, 0x00, 0x00, 0xfc, 0x00,
   0x00, 0xfe, 0x00, 0x80, 0x7f, 0x00, 0x00, 0xfc, 0x0f, 0xe0, 0x3f, 0x00,
   0x00, 0xf0, 0xff, 0xff, 0x0f, 0x00, 0x00, 0xc0, 0xff, 0xff, 0x03, 0x00,
   0x00, 0x00, 0xff, 0xff, 0x00, 0x00, 0x00, 0x00, 0xe8, 0x0f, 0x00, 0x00};
